<svg width="475" height="475" viewBox="0 0 475 475" fill="none" xmlns="http://www.w3.org/2000/svg">
<path d="M439.502 267.865L351.026 179.388C367.449 162.966 381.914 158.446 407.333 183.85C414.99 191.493 425.008 195.322 435.04 195.322C445.073 195.322 455.09 191.493 462.748 183.85C478.048 168.55 478.048 143.736 462.748 128.436C438.927 104.615 412.846 91.2001 386.808 88.1919C383.8 62.1399 370.385 36.0734 346.564 12.2524C331.264 -3.0478 306.45 -3.0478 291.15 12.2524C275.849 27.5526 275.849 52.3524 291.15 67.6526C316.568 93.0713 312.034 107.551 295.612 123.96L207.135 35.4833C159.824 -11.8278 82.8484 -11.8278 35.5373 35.4833C-3.35366 74.3743 -10.2625 133.301 14.7676 179.331C5.12405 196.963 0 216.826 0 237.48C0 269.894 12.623 300.365 35.5373 323.279C57.9334 345.675 86.9649 357.449 116.356 358.644C117.551 388.035 129.325 417.081 151.721 439.463C174.635 462.377 205.106 475 237.52 475C258.174 475 278.037 469.876 295.655 460.232C341.685 485.277 400.611 478.354 439.502 439.463C486.813 392.152 486.813 315.176 439.502 267.865ZM90.9519 207.096L118.659 179.388L90.9519 151.681C74.198 134.927 74.198 107.666 90.9519 90.8979C99.3288 82.5209 110.34 78.3325 121.336 78.3325C132.333 78.3325 143.344 82.5209 151.721 90.8979L240.197 179.374L151.721 267.85C134.967 284.604 107.706 284.604 90.9375 267.85C74.1836 251.111 74.1836 223.85 90.9519 207.096ZM384.088 384.048C367.334 400.802 340.073 400.802 323.304 384.048L295.597 356.341L267.89 384.048C251.136 400.802 223.875 400.802 207.107 384.048C190.353 367.294 190.353 340.033 207.107 323.265L295.583 234.789L384.059 323.265C400.856 340.033 400.842 367.294 384.088 384.048Z" fill="url(#paint0_linear_53581_22482)"/>
<path opacity="0.35" d="M295.609 234.789L329.189 268.383L384.604 212.968L351.024 179.389L295.609 234.789Z" fill="url(#paint1_linear_53581_22482)"/>
<path opacity="0.35" d="M295.612 123.974L262.032 90.3945L206.617 145.795L240.197 179.389L295.612 123.974Z" fill="url(#paint2_linear_53581_22482)"/>
<defs>
<linearGradient id="paint0_linear_53581_22482" x1="237.48" y1="475" x2="237.48" y2="-0.0299279" gradientUnits="userSpaceOnUse">
<stop stop-color="#9B00FF"/>
<stop offset="0.85" stop-color="#FF509B"/>
</linearGradient>
<linearGradient id="paint1_linear_53581_22482" x1="323.314" y1="207.092" x2="356.9" y2="240.678" gradientUnits="userSpaceOnUse">
<stop stop-color="#1D1D1B"/>
<stop offset="1" stop-color="#1D1D1B" stop-opacity="0"/>
</linearGradient>
<linearGradient id="paint2_linear_53581_22482" x1="267.908" y1="151.684" x2="234.321" y2="118.098" gradientUnits="userSpaceOnUse">
<stop stop-color="#1D1D1B"/>
<stop offset="1" stop-color="#1D1D1B" stop-opacity="0"/>
</linearGradient>
</defs>
</svg>
