<svg width="125" height="28" viewBox="0 0 125 28" fill="none" xmlns="http://www.w3.org/2000/svg">
<path d="M18.6108 14.5466C17.3667 13.4435 15.4532 12.6507 12.8705 12.1853L10.4509 11.7458C9.24964 11.5218 8.37444 11.2632 7.83387 10.9702C7.28473 10.6772 7.01874 10.255 7.01874 9.70344V9.68621C7.01874 9.31565 7.13028 8.98818 7.35337 8.68656C7.56788 8.39356 7.89394 8.16089 8.34012 7.98853C8.77772 7.81618 9.31828 7.73 9.97039 7.73C10.6225 7.73 11.1888 7.81618 11.695 7.99715C12.2013 8.17812 12.6046 8.42803 12.9135 8.74688C12.9821 8.81583 13.0422 8.89339 13.1022 8.97956C13.5656 9.6345 14.2863 10.0654 15.0929 10.0654H17.0492C18.8082 10.0654 19.9665 8.21259 19.1857 6.63556C19.0313 6.32533 18.8596 6.04095 18.6709 5.7738C17.8901 4.66212 16.766 3.80036 15.2988 3.19713C13.8316 2.59389 12.0211 2.29227 9.876 2.29227C7.97116 2.29227 6.27225 2.61974 4.78784 3.26607C3.30344 3.91239 2.12793 4.83448 1.27847 6.01509C0.429018 7.19571 0 8.59177 0 10.2119V10.2291C0 12.1078 0.634947 13.6417 1.91342 14.8396C3.1919 16.0374 5.01952 16.8475 7.41344 17.2697L9.8331 17.7092C11.1716 17.9591 12.1069 18.2263 12.656 18.5107C13.2052 18.8037 13.4712 19.2346 13.4712 19.8033V19.8206C13.4712 20.2256 13.3339 20.5789 13.0507 20.8978C12.7676 21.2166 12.3815 21.4579 11.8752 21.6389C11.369 21.8198 10.7598 21.906 10.0476 21.906C9.37834 21.906 8.76913 21.8112 8.21141 21.6303C7.65369 21.4493 7.19893 21.1908 6.82997 20.8633C6.69269 20.7426 6.58114 20.622 6.48676 20.4927C6.04058 19.8895 5.31983 19.562 4.58192 19.562H2.67707C0.909519 19.562 -0.283152 21.4062 0.47192 23.0091C0.617786 23.3279 0.797974 23.6382 1.01248 23.9312C1.8362 25.0601 3.04603 25.8874 4.56476 26.4734C6.08348 27.0507 7.88536 27.3438 9.96181 27.3438C12.1755 27.3438 14.0718 27.0077 15.6334 26.3441C17.2036 25.6805 18.4049 24.7326 19.2286 23.5089C20.0609 22.2852 20.4728 20.8374 20.4728 19.1742V19.157C20.4813 17.1922 19.855 15.6582 18.6108 14.5466Z" fill="url(#paint0_linear_52859_30510)"/>
<path d="M48.4013 8.79858C47.4918 8.26428 46.4364 7.99714 45.2352 7.99714C44.2999 7.99714 43.4419 8.16949 42.6611 8.50558C41.8803 8.85028 41.2282 9.32425 40.6876 9.92749C40.1556 10.5393 39.7781 11.246 39.5721 12.0647H39.4349C39.289 11.1943 38.9887 10.4532 38.5425 9.84993C38.0877 9.24669 37.5214 8.78134 36.8264 8.47111C36.1314 8.15225 35.342 7.99714 34.4497 7.99714C33.1712 7.99714 32.0557 8.35046 31.1205 9.05711C30.1766 9.76375 29.5417 10.7117 29.2071 11.9095H29.0698V10.841C29.0698 9.4966 27.9887 8.41078 26.6501 8.41078H24.6509C23.3124 8.41078 22.2312 9.4966 22.2312 10.841V24.4741C22.2312 25.8184 23.3124 26.9042 24.6509 26.9042H26.6501C27.9887 26.9042 29.0698 25.8184 29.0698 24.4741V16.1408C29.0698 15.6065 29.1556 15.1412 29.3358 14.7534C29.516 14.3656 29.7734 14.064 30.0994 13.8485C30.4341 13.6331 30.8288 13.5297 31.2835 13.5297C32.0214 13.5297 32.5706 13.7537 32.9481 14.1932C33.3171 14.6327 33.5058 15.2963 33.5058 16.1839V24.4827C33.5058 25.827 34.587 26.9128 35.9255 26.9128H37.5729C38.9115 26.9128 39.9926 25.827 39.9926 24.4827V16.1494C39.9926 15.5979 40.0784 15.1325 40.25 14.7534C40.4216 14.3656 40.679 14.0726 41.0136 13.8571C41.3483 13.6417 41.743 13.5383 42.1977 13.5383C42.9442 13.5383 43.502 13.7537 43.8795 14.1932C44.2484 14.6327 44.4372 15.2877 44.4372 16.1753V24.4913C44.4372 25.8356 45.5183 26.9215 46.8569 26.9215H48.8561C50.1946 26.9215 51.2758 25.8356 51.2758 24.4913V14.3656C51.2758 13.0988 51.0184 11.9957 50.5121 11.0392C50.0145 10.0826 49.3023 9.33287 48.4013 8.79858Z" fill="url(#paint1_linear_52859_30510)"/>
<path d="M56.7142 0C54.8094 0 53.2563 1.55118 53.2563 3.47291C53.2563 5.39464 54.8008 6.94582 56.7142 6.94582C58.619 6.94582 60.1721 5.39464 60.1721 3.47291C60.1721 1.55118 58.619 0 56.7142 0Z" fill="url(#paint2_linear_52859_30510)"/>
<path d="M84.3832 22.3456C83.671 22.3456 83.1562 22.1819 82.813 21.863C82.4698 21.5356 82.3068 21.0013 82.3068 20.2515V13.3574H83.9285C84.8208 13.3574 85.5416 12.6335 85.5416 11.7373V10.0224C85.5416 9.12616 84.8208 8.40228 83.9285 8.40228H82.3068V5.4809C82.3068 4.58466 81.586 3.86078 80.6937 3.86078H77.0813C76.189 3.86078 75.4682 4.58466 75.4682 5.4809V8.40228H70.2428V5.4809C70.2428 4.58466 69.522 3.86078 68.6297 3.86078H65.0173C64.125 3.86078 63.4042 4.58466 63.4042 5.4809V8.40228H55.7248C54.3863 8.40228 53.3051 9.4881 53.3051 10.8325V24.9998C53.3051 26.0512 54.1546 26.9043 55.2014 26.9043H58.2474C59.2942 26.9043 60.1437 26.0512 60.1437 24.9998V13.3574H63.3956V21.3029C63.3956 23.4831 63.9534 25.0257 65.0774 25.9392C66.1928 26.8526 67.9432 27.3094 70.3286 27.3094C70.7662 27.3094 71.7014 27.2404 72.4479 27.1715C73.04 27.1198 73.4862 26.62 73.4862 26.034V23.5176C73.4862 22.8799 72.9628 22.3542 72.3278 22.3542H72.3192C71.6156 22.3542 71.1008 22.1905 70.7576 21.8716C70.4144 21.5442 70.2514 21.0099 70.2514 20.2601V13.366H75.4768V21.3115C75.4768 23.4918 76.0345 25.0343 77.1586 25.9478C78.274 26.8613 80.0244 27.318 82.4097 27.318C82.8473 27.318 83.7826 27.2491 84.5291 27.1801C85.1211 27.1284 85.5673 26.6286 85.5673 26.0426V23.5262C85.5416 22.8713 85.0182 22.3456 84.3832 22.3456Z" fill="url(#paint3_linear_52859_30510)"/>
<path d="M100.083 9.13467C98.6758 8.37631 97.0112 7.99714 95.0978 7.99714C93.1844 7.99714 91.5198 8.38493 90.1126 9.1519C88.7054 9.91887 87.6157 11.0305 86.8521 12.4611C86.0884 13.9002 85.7023 15.6237 85.7023 17.6317V17.6489C85.7023 19.6482 86.0884 21.3717 86.8606 22.8195C87.6329 24.2672 88.7397 25.3789 90.1727 26.1459C91.6056 26.9129 93.3216 27.3006 95.3123 27.3006C96.9168 27.3006 98.2639 27.0938 99.3622 26.6888C100.461 26.2838 101.353 25.7581 102.039 25.1118C102.726 24.4654 103.258 23.7933 103.627 23.0866C103.635 23.078 103.635 23.0694 103.644 23.0521C104.141 22.0611 103.404 20.8977 102.297 20.8977H99.4566C98.8646 20.8977 98.2983 21.1477 97.9036 21.5958L97.895 21.6044C97.6633 21.8629 97.3544 22.087 96.9511 22.2852C96.5479 22.4834 96.0502 22.5782 95.4496 22.5782C94.8061 22.5782 94.2569 22.4317 93.7936 22.1473C93.3388 21.8629 92.987 21.4493 92.7382 20.915C92.5151 20.4324 92.4035 19.8464 92.3778 19.1914H102.571C103.644 19.1914 104.51 18.3211 104.51 17.2439C104.51 15.3652 104.124 13.7365 103.352 12.349C102.588 10.9702 101.49 9.89302 100.083 9.13467ZM93.7507 13.1505C94.1883 12.8661 94.6945 12.7196 95.2866 12.7196C95.8786 12.7196 96.3848 12.8661 96.8224 13.1505C97.26 13.4349 97.5947 13.8485 97.8349 14.3828C97.955 14.6586 98.0494 14.9688 98.1095 15.3049H92.4722C92.5323 14.9688 92.618 14.6586 92.7468 14.3828C92.9784 13.8485 93.3216 13.4349 93.7507 13.1505Z" fill="url(#paint4_linear_52859_30510)"/>
<path d="M118.665 7.99714C117.275 7.99714 116.108 8.32461 115.173 8.97955C114.238 9.63449 113.543 10.5824 113.088 11.8406H112.951V10.841C112.951 9.4966 111.87 8.41078 110.531 8.41078H108.532C107.193 8.41078 106.112 9.4966 106.112 10.841V24.4741C106.112 25.8184 107.193 26.9042 108.532 26.9042H110.531C111.87 26.9042 112.951 25.8184 112.951 24.4741V16.5114C112.951 15.934 113.054 15.4169 113.268 14.9688C113.483 14.5207 113.783 14.1674 114.169 13.9088C114.555 13.6503 115.019 13.521 115.551 13.521C116.409 13.521 117.052 13.7882 117.49 14.3225C117.927 14.8568 118.142 15.5893 118.142 16.52V24.4654C118.142 25.8098 119.223 26.8956 120.562 26.8956H122.561C123.899 26.8956 124.98 25.8098 124.98 24.4654V15.0205C124.98 12.7972 124.431 11.0736 123.333 9.84131C122.235 8.60899 120.69 7.99714 118.665 7.99714Z" fill="url(#paint5_linear_52859_30510)"/>
<path d="M60.1425 13.3576H53.2954V18.1834H60.1425V13.3576Z" fill="url(#paint6_linear_52859_30510)" fill-opacity="0.1"/>
<defs>
<linearGradient id="paint0_linear_52859_30510" x1="62.4869" y1="27.3437" x2="62.4869" y2="-0.00172282" gradientUnits="userSpaceOnUse">
<stop stop-color="#9B00FF"/>
<stop offset="0.85" stop-color="#FF509B"/>
</linearGradient>
<linearGradient id="paint1_linear_52859_30510" x1="62.4869" y1="27.3437" x2="62.4869" y2="-0.00172282" gradientUnits="userSpaceOnUse">
<stop stop-color="#9B00FF"/>
<stop offset="0.85" stop-color="#FF509B"/>
</linearGradient>
<linearGradient id="paint2_linear_52859_30510" x1="62.4869" y1="27.3437" x2="62.4869" y2="-0.00172282" gradientUnits="userSpaceOnUse">
<stop stop-color="#9B00FF"/>
<stop offset="0.85" stop-color="#FF509B"/>
</linearGradient>
<linearGradient id="paint3_linear_52859_30510" x1="62.4869" y1="27.3437" x2="62.4869" y2="-0.00172282" gradientUnits="userSpaceOnUse">
<stop stop-color="#9B00FF"/>
<stop offset="0.85" stop-color="#FF509B"/>
</linearGradient>
<linearGradient id="paint4_linear_52859_30510" x1="62.4869" y1="27.3437" x2="62.4869" y2="-0.00172282" gradientUnits="userSpaceOnUse">
<stop stop-color="#9B00FF"/>
<stop offset="0.85" stop-color="#FF509B"/>
</linearGradient>
<linearGradient id="paint5_linear_52859_30510" x1="62.4869" y1="27.3437" x2="62.4869" y2="-0.00172282" gradientUnits="userSpaceOnUse">
<stop stop-color="#9B00FF"/>
<stop offset="0.85" stop-color="#FF509B"/>
</linearGradient>
<linearGradient id="paint6_linear_52859_30510" x1="56.7158" y1="18.1859" x2="56.7158" y2="13.36" gradientUnits="userSpaceOnUse">
<stop stop-color="#1D1D1B" stop-opacity="0"/>
<stop offset="1" stop-color="#1D1D1B"/>
</linearGradient>
</defs>
</svg>
